<?xml version="1.0" encoding="utf-8"?>
<svg viewBox="0 0 500 500" xmlns="http://www.w3.org/2000/svg">
  <path fill="#4d7e3e" d="M 100.978 122.957 L 100.978 182.792 L 88.503 182.792 L 88.503 119.584 L 2.235 77.117 L 244.921 1.836 L 502.162 69.873 L 371.73 136.469 L 374.847 186.18 L 147.224 186.18 L 146.707 148.055 L 100.978 122.957 Z M 89.529 198.333 C 93.908 200.159 89.369 244.977 89.369 244.977 C 90.289 253.761 80.315 309.574 80.315 309.574 C 96.289 320.552 105.695 311.356 105.695 311.356 C 114.599 303.26 109.033 271.011 109.033 271.011 L 100.986 194.215 L 89.683 196.451 L 89.529 198.333 Z M 460.845 441.789 C 460.845 402.244 441.351 370.191 417.317 370.191 L 102.37 370.191 C 78.33 370.191 58.845 402.244 58.845 441.789 L 58.845 500.501 L 460.845 500.501 L 460.845 441.789 Z M 146.356 194.21 C 139.453 208.654 135.901 224.267 135.92 240.05 C 135.92 303.095 191.407 354.211 259.843 354.211 C 328.274 354.211 383.767 303.102 383.767 240.05 C 383.767 223.737 380.028 208.244 373.334 194.21 L 146.356 194.21 Z" data-fill-palette-color="accent" style="" transform="matrix(1, 0, 0, 1, -7.105427357601002e-15, -3.552713678800501e-15)"/>
</svg>